<mxfile host="app.diagrams.net" modified="2023-09-21T04:05:55.710Z" agent="Mozilla/5.0 (Windows NT 10.0; Win64; x64) AppleWebKit/537.36 (KHTML, like Gecko) Chrome/117.0.0.0 Safari/537.36 Edg/117.0.2045.31" version="21.7.5" etag="foxtY40xloKBFlC4JdQ4" type="github">
  <diagram name="Page-1" id="Si3TmL1HpiABUJQwDJJA">
    <mxGraphModel>
      <root>
        <mxCell id="0" />
        <mxCell id="1" parent="0" />
      </root>
    </mxGraphModel>
  </diagram>
</mxfile>
